<svg width="16" height="16" viewBox="0 0 16 16" fill="none" xmlns="http://www.w3.org/2000/svg">
<path d="M8.00001 14.6667C4.31801 14.6667 1.33334 11.682 1.33334 8.00004C1.33334 4.31804 4.31801 1.33337 8.00001 1.33337C11.682 1.33337 14.6667 4.31804 14.6667 8.00004C14.6667 11.682 11.682 14.6667 8.00001 14.6667ZM8.00001 6.66671C7.8232 6.66671 7.65363 6.73695 7.52861 6.86197C7.40358 6.98699 7.33334 7.15656 7.33334 7.33337V10.6667C7.33334 10.8435 7.40358 11.0131 7.52861 11.1381C7.65363 11.2631 7.8232 11.3334 8.00001 11.3334C8.17682 11.3334 8.34639 11.2631 8.47141 11.1381C8.59644 11.0131 8.66668 10.8435 8.66668 10.6667V7.33337C8.66668 7.15656 8.59644 6.98699 8.47141 6.86197C8.34639 6.73695 8.17682 6.66671 8.00001 6.66671ZM8.00001 6.00004C8.17682 6.00004 8.34639 5.9298 8.47141 5.80478C8.59644 5.67975 8.66668 5.51019 8.66668 5.33337C8.66668 5.15656 8.59644 4.98699 8.47141 4.86197C8.34639 4.73695 8.17682 4.66671 8.00001 4.66671C7.8232 4.66671 7.65363 4.73695 7.52861 4.86197C7.40358 4.98699 7.33334 5.15656 7.33334 5.33337C7.33334 5.51019 7.40358 5.67975 7.52861 5.80478C7.65363 5.9298 7.8232 6.00004 8.00001 6.00004Z" fill="#666C70"/>
</svg>
