<svg width="16" height="16" viewBox="0 0 16 16" fill="none" xmlns="http://www.w3.org/2000/svg">
<path d="M8 1L2 3V9C2 12.3141 4.68594 15 8 15C11.3141 15 14 12.3141 14 9V3L8 1ZM12.875 9C12.875 11.6922 10.6922 13.875 8 13.875C5.30781 13.875 3.125 11.6922 3.125 9V3.84375L8 2.125L12.875 3.84375V9Z" fill="#9D74F5"/>
<path d="M5.91252 7.42344C5.86039 7.37106 5.79842 7.32951 5.73018 7.30115C5.66194 7.27279 5.58877 7.25819 5.51487 7.25819C5.44097 7.25819 5.3678 7.27279 5.29956 7.30115C5.23131 7.32951 5.16935 7.37106 5.11721 7.42344C5.06484 7.47557 5.02328 7.53754 4.99492 7.60578C4.96656 7.67402 4.95197 7.7472 4.95197 7.82109C4.95197 7.89499 4.96656 7.96816 4.99492 8.03641C5.02328 8.10465 5.06484 8.16662 5.11721 8.21875L7.13909 10.2406L7.1719 10.2734C7.22121 10.3228 7.27979 10.362 7.34427 10.3888C7.40875 10.4155 7.47787 10.4293 7.54768 10.4293C7.61749 10.4293 7.68661 10.4155 7.75109 10.3888C7.81557 10.362 7.87415 10.3228 7.92346 10.2734L11.4156 6.78125C11.4651 6.73194 11.5043 6.67336 11.531 6.60888C11.5577 6.5444 11.5715 6.47528 11.5715 6.40547C11.5715 6.33566 11.5577 6.26654 11.531 6.20206C11.5043 6.13758 11.4651 6.079 11.4156 6.02969L11.3719 5.98594C11.3226 5.93653 11.264 5.89733 11.1995 5.87059C11.135 5.84384 11.0659 5.83008 10.9961 5.83008C10.9263 5.83008 10.8572 5.84384 10.7927 5.87059C10.7282 5.89733 10.6697 5.93653 10.6203 5.98594L7.5469 9.05781L5.91252 7.42344Z" fill="#9D74F5"/>
</svg>
