<svg width="14" height="14" viewBox="0 0 14 14" fill="none" xmlns="http://www.w3.org/2000/svg">
<path d="M9.625 10.5001V7.87512C9.625 7.39212 10.017 7.00012 10.5 7.00012H13.125V5.25012C13.125 4.76712 12.733 4.37512 12.25 4.37512H11.2455L10.8185 1.8385C10.7993 1.723 10.7336 1.61975 10.6383 1.55325C10.542 1.48587 10.4221 1.46225 10.3075 1.48062L1.67037 3.06962C1.55575 3.09062 1.45337 3.15712 1.38775 3.25425C1.32212 3.35137 1.29762 3.47037 1.32125 3.58587L1.47787 4.37512H0.875C0.392 4.37512 0 4.76712 0 5.25012V13.1251C0 13.6081 0.392 14.0001 0.875 14.0001H12.25C12.733 14.0001 13.125 13.6081 13.125 13.1251V11.3751H10.5C10.017 11.3751 9.625 10.9831 9.625 10.5001ZM2.26537 3.85012L10.0293 2.42125L10.3583 4.37512H2.3695L2.26537 3.85012ZM13.5625 7.87512H10.5V10.5001H13.5625C13.804 10.5001 14 10.3041 14 10.0626V8.31262C14 8.07112 13.804 7.87512 13.5625 7.87512ZM11.8125 9.62512C11.571 9.62512 11.375 9.42912 11.375 9.18762C11.375 8.94612 11.571 8.75012 11.8125 8.75012C12.054 8.75012 12.25 8.94612 12.25 9.18762C12.25 9.42912 12.054 9.62512 11.8125 9.62512Z" fill="#0E1113"/>
</svg>
