<svg width="132" height="25" viewBox="0 0 132 25" fill="none" xmlns="http://www.w3.org/2000/svg">
<path d="M8.89672 20.6621C6.35365 23.2364 2.04667 23.2261 0.843849 19.7952C0.608353 19.1234 0.420066 18.4328 0.28158 17.728C-0.28385 14.8504 0.00634938 11.8678 1.11548 9.15724C2.22462 6.44672 4.10287 4.12997 6.51272 2.49998C8.9226 0.87 11.7558 -1.25677e-07 14.6541 0C17.5524 1.25677e-07 20.3857 0.87 22.7955 2.49998C25.2054 4.12997 27.0836 6.44672 28.1927 9.15733C29.3019 11.8678 29.592 14.8504 29.0266 17.728C28.8882 18.4328 28.6999 19.1234 28.4643 19.7952C27.2615 23.2261 22.9545 23.2364 20.4115 20.6621L16.4859 16.6883C16.1108 16.3086 16.1496 15.6825 16.253 15.1559C16.3159 14.8359 16.2836 14.5041 16.1602 14.2025C16.0368 13.9009 15.8279 13.6432 15.5598 13.4619C15.2917 13.2806 14.9765 13.1838 14.6541 13.1838C14.3317 13.1838 14.0165 13.2806 13.7484 13.4619C13.4803 13.6432 13.2714 13.9009 13.148 14.2025C13.0246 14.5041 12.9923 14.8359 13.0552 15.1559C13.1587 15.6825 13.1974 16.3086 12.8223 16.6883L8.89672 20.6621Z" fill="#9D74F5"/>
<path d="M41.2304 17.1005H45.1694V19.4503H38.2234V6.9541H41.2304V17.1005Z" fill="white"/>
<path d="M50.5427 19.5927C49.5814 19.5927 48.7139 19.385 47.9401 18.9697C47.1782 18.5543 46.5744 17.9609 46.1289 17.1896C45.6952 16.4182 45.4783 15.5163 45.4783 14.4838C45.4783 13.4633 45.701 12.5672 46.1464 11.7959C46.592 11.0127 47.2016 10.4134 47.9753 9.99802C48.7491 9.58267 49.6166 9.375 50.5779 9.375C51.5392 9.375 52.4067 9.58267 53.1804 9.99802C53.9542 10.4134 54.5638 11.0127 55.0093 11.7959C55.4547 12.5672 55.6775 13.4633 55.6775 14.4838C55.6775 15.5044 55.4489 16.4063 54.9917 17.1896C54.5462 17.9609 53.9308 18.5543 53.1453 18.9697C52.3716 19.385 51.504 19.5927 50.5427 19.5927ZM50.5427 16.9581C51.1171 16.9581 51.6037 16.7446 52.0023 16.3173C52.4126 15.8901 52.6178 15.279 52.6178 14.4838C52.6178 13.6887 52.4184 13.0776 52.0199 12.6503C51.633 12.2231 51.1523 12.0095 50.5779 12.0095C49.9917 12.0095 49.5052 12.2231 49.1183 12.6503C48.7314 13.0657 48.538 13.6768 48.538 14.4838C48.538 15.279 48.7256 15.8901 49.1008 16.3173C49.4877 16.7446 49.9683 16.9581 50.5427 16.9581Z" fill="white"/>
<path d="M60.4732 9.375C61.1649 9.375 61.7687 9.51741 62.2845 9.80224C62.812 10.087 63.2165 10.4609 63.4979 10.9236V9.51741H66.5048V19.4324C66.5048 20.3462 66.3232 21.171 65.9597 21.9067C65.608 22.6544 65.0629 23.2478 64.3244 23.6868C63.5975 24.1259 62.6889 24.3455 61.5987 24.3455C60.145 24.3455 58.9668 23.9954 58.0641 23.2953C57.1614 22.6069 56.6455 21.6694 56.5166 20.4827H59.4885C59.5822 20.8624 59.805 21.1591 60.1567 21.3728C60.5084 21.5982 60.9422 21.7109 61.458 21.7109C62.0793 21.7109 62.5716 21.527 62.9351 21.1591C63.3102 20.8031 63.4979 20.2276 63.4979 19.4324V18.0262C63.2047 18.489 62.8003 18.8688 62.2845 19.1654C61.7687 19.4503 61.1649 19.5927 60.4732 19.5927C59.6643 19.5927 58.9316 19.385 58.2751 18.9697C57.6186 18.5424 57.0969 17.9431 56.7101 17.1717C56.3349 16.3885 56.1473 15.4866 56.1473 14.466C56.1473 13.4454 56.3349 12.5495 56.7101 11.7781C57.0969 11.0067 57.6186 10.4134 58.2751 9.99802C58.9316 9.58267 59.6643 9.375 60.4732 9.375ZM63.4979 14.4838C63.4979 13.7243 63.2868 13.125 62.8648 12.6859C62.4545 12.2469 61.9503 12.0273 61.3525 12.0273C60.7546 12.0273 60.2446 12.2469 59.8226 12.6859C59.4122 13.1132 59.2071 13.7066 59.2071 14.466C59.2071 15.2255 59.4122 15.8308 59.8226 16.2817C60.2446 16.7208 60.7546 16.9403 61.3525 16.9403C61.9503 16.9403 62.4545 16.7208 62.8648 16.2817C63.2868 15.8426 63.4979 15.2434 63.4979 14.4838Z" fill="white"/>
<path d="M72.6193 19.5927C71.658 19.5927 70.7905 19.385 70.0168 18.9697C69.2548 18.5543 68.651 17.9609 68.2055 17.1896C67.7718 16.4182 67.5549 15.5163 67.5549 14.4838C67.5549 13.4633 67.7776 12.5672 68.2231 11.7959C68.6686 11.0127 69.2782 10.4134 70.0519 9.99802C70.8257 9.58267 71.6932 9.375 72.6545 9.375C73.6158 9.375 74.4833 9.58267 75.257 9.99802C76.0308 10.4134 76.6404 11.0127 77.0859 11.7959C77.5314 12.5672 77.7541 13.4633 77.7541 14.4838C77.7541 15.5044 77.5256 16.4063 77.0683 17.1896C76.6229 17.9609 76.0074 18.5543 75.2219 18.9697C74.4482 19.385 73.5806 19.5927 72.6193 19.5927ZM72.6193 16.9581C73.1937 16.9581 73.6803 16.7446 74.0789 16.3173C74.4892 15.8901 74.6944 15.279 74.6944 14.4838C74.6944 13.6887 74.495 13.0776 74.0965 12.6503C73.7096 12.2231 73.2289 12.0095 72.6545 12.0095C72.0683 12.0095 71.5818 12.2231 71.1949 12.6503C70.8081 13.0657 70.6146 13.6768 70.6146 14.4838C70.6146 15.279 70.8022 15.8901 71.1774 16.3173C71.5643 16.7446 72.0449 16.9581 72.6193 16.9581Z" fill="white"/>
<path d="M80.3342 8.48505C79.8066 8.48505 79.3729 8.33077 79.0329 8.02223C78.7046 7.70182 78.5405 7.3102 78.5405 6.84738C78.5405 6.37269 78.7046 5.98107 79.0329 5.67252C79.3729 5.3521 79.8066 5.19189 80.3342 5.19189C80.85 5.19189 81.2721 5.3521 81.6003 5.67252C81.9402 5.98107 82.1102 6.37269 82.1102 6.84738C82.1102 7.3102 81.9402 7.70182 81.6003 8.02223C81.2721 8.33077 80.85 8.48505 80.3342 8.48505ZM81.8289 9.51752V19.4504H78.8219V9.51752H81.8289Z" fill="white"/>
<path d="M86.4873 10.9236C86.7802 10.4609 87.1847 10.087 87.7008 9.80224C88.2169 9.51741 88.8207 9.375 89.5122 9.375C90.3212 9.375 91.0536 9.58267 91.7102 9.99802C92.3668 10.4134 92.8829 11.0067 93.2576 11.7781C93.6442 12.5495 93.8384 13.4454 93.8384 14.466C93.8384 15.4866 93.6442 16.3885 93.2576 17.1717C92.8829 17.9431 92.3668 18.5424 91.7102 18.9697C91.0536 19.385 90.3212 19.5927 89.5122 19.5927C88.8318 19.5927 88.2288 19.4503 87.7008 19.1654C87.1847 18.8806 86.7802 18.5128 86.4873 18.0618V24.1853H83.4805V9.51741H86.4873V10.9236ZM90.7785 14.466C90.7785 13.7066 90.5673 13.1132 90.1449 12.6859C89.7345 12.2469 89.2252 12.0273 88.6154 12.0273C88.0176 12.0273 87.5075 12.2469 87.0851 12.6859C86.6755 13.125 86.4702 13.7243 86.4702 14.4838C86.4702 15.2434 86.6755 15.8426 87.0851 16.2817C87.5075 16.7208 88.0176 16.9403 88.6154 16.9403C89.2133 16.9403 89.7234 16.7208 90.1449 16.2817C90.5673 15.8308 90.7785 15.2255 90.7785 14.466Z" fill="white"/>
<path d="M98.8799 19.5927C98.0241 19.5927 97.2619 19.4443 96.5933 19.1477C95.9257 18.8509 95.3977 18.4475 95.011 17.9372C94.6244 17.415 94.4073 16.8335 94.3604 16.1927H97.3325C97.3675 16.5368 97.5259 16.8157 97.8069 17.0293C98.0888 17.2429 98.4345 17.3497 98.845 17.3497C99.2197 17.3497 99.5067 17.2785 99.706 17.1361C99.9172 16.9819 100.023 16.786 100.023 16.5487C100.023 16.2639 99.8763 16.0562 99.5834 15.9257C99.2904 15.7833 98.8152 15.6291 98.1586 15.4628C97.4552 15.2967 96.8693 15.1247 96.4 14.9466C95.9316 14.7568 95.5271 14.466 95.1873 14.0744C94.8467 13.6709 94.6772 13.1309 94.6772 12.4546C94.6772 11.8849 94.8296 11.3687 95.1345 10.9059C95.4505 10.4312 95.9078 10.0573 96.5056 9.7844C97.1154 9.51147 97.8367 9.375 98.6687 9.375C99.8993 9.375 100.867 9.68353 101.57 10.3006C102.286 10.9178 102.696 11.7366 102.802 12.7572H100.023C99.9759 12.413 99.8235 12.1401 99.5655 11.9383C99.3194 11.7366 98.9915 11.6357 98.581 11.6357C98.2293 11.6357 97.9593 11.7069 97.772 11.8493C97.5846 11.9798 97.4909 12.1638 97.4909 12.4011C97.4909 12.6859 97.6374 12.8996 97.9304 13.042C98.2353 13.1844 98.7036 13.3268 99.3372 13.4691C100.064 13.6591 100.656 13.849 101.113 14.0388C101.57 14.2168 101.969 14.5134 102.309 14.9289C102.66 15.3323 102.842 15.8782 102.854 16.5666C102.854 17.148 102.69 17.6702 102.361 18.133C102.045 18.584 101.582 18.94 100.972 19.201C100.375 19.4622 99.677 19.5927 98.8799 19.5927Z" fill="white"/>
<path d="M113.856 9.51758V19.4504H110.848V18.0976C110.544 18.5366 110.127 18.8927 109.6 19.1656C109.084 19.4267 108.51 19.5572 107.876 19.5572C107.126 19.5572 106.464 19.3911 105.89 19.0588C105.315 18.7146 104.869 18.2221 104.553 17.5814C104.237 16.9405 104.078 16.187 104.078 15.3206V9.51758H107.067V14.9112C107.067 15.5758 107.238 16.092 107.577 16.4599C107.917 16.8277 108.375 17.0117 108.949 17.0117C109.535 17.0117 109.999 16.8277 110.338 16.4599C110.678 16.092 110.848 15.5758 110.848 14.9112V9.51758H113.856Z" fill="white"/>
<path d="M128.009 9.41064C129.227 9.41064 130.195 9.78444 130.91 10.5321C131.636 11.2797 132 12.3181 132 13.6472V19.4503H129.011V14.0567C129.011 13.4158 128.841 12.9233 128.501 12.5792C128.172 12.2231 127.716 12.0451 127.129 12.0451C126.543 12.0451 126.08 12.2231 125.74 12.5792C125.412 12.9233 125.248 13.4158 125.248 14.0567V19.4503H122.258V14.0567C122.258 13.4158 122.088 12.9233 121.748 12.5792C121.42 12.2231 120.962 12.0451 120.376 12.0451C119.79 12.0451 119.327 12.2231 118.987 12.5792C118.659 12.9233 118.495 13.4158 118.495 14.0567V19.4503H115.488V9.51746H118.495V10.7635C118.8 10.3481 119.199 10.0218 119.691 9.78444C120.183 9.53521 120.74 9.41064 121.361 9.41064C122.1 9.41064 122.757 9.57082 123.331 9.89125C123.917 10.2117 124.374 10.6686 124.703 11.2619C125.042 10.716 125.506 10.271 126.092 9.92685C126.677 9.58271 127.317 9.41064 128.009 9.41064Z" fill="white"/>
</svg>
